PathFileType	4	(X/Y/Z)	D:\TRACE\spot_10-12-23\spot_arm_body_motion_3_9-platform.trc
DataRate	CameraRate	NumFrames	NumMarkers	Units	OrigDataRate	OrigDataStartFrame	OrigNumFrames
100.00	100.00	      30	5	mm	100.00	3501	      7000
Frame#	Time	Left_Front			Right_Front			Left_Aft			Right_Aft			Post			
		X1	Y1	Z1	X2	Y2	Z2	X3	Y3	Z3	X4	Y4	Z4	X5	Y5	Z5	

3501	35.000	-792.71851	-40.47594	-651.06647	779.49420	-35.06636	-644.16907	-710.24060	36.19834	484.32712	707.45380	46.66946	570.37170	-9.51786	674.15295	-1019.06738	
3502	35.010	-792.58618	-40.25389	-651.03473	779.92053	-35.05364	-644.06360	-709.94073	36.22122	484.34662	707.71826	46.63062	570.36914	-9.26794	674.28674	-1019.09448	
3503	35.020	-792.18481	-40.19437	-651.00684	780.13245	-35.00438	-644.11633	-709.64722	36.12714	484.42691	707.85291	46.57124	570.38159	-9.06746	674.33978	-1019.13019	
3504	35.030	-791.82349	-40.17053	-650.98828	780.45422	-34.97261	-644.11322	-709.33496	36.02847	484.50549	708.02649	46.47796	570.42548	-8.84695	674.38458	-1019.14105	
3505	35.040	-791.71283	-39.77347	-650.96606	780.73932	-34.78921	-644.07733	-709.13733	35.86399	484.50650	708.34399	46.34148	570.44098	-8.58266	674.44916	-1019.14087	
3506	35.050	-791.41315	-40.01716	-650.95844	781.06726	-34.65498	-644.06128	-708.95624	35.85659	484.52658	708.65735	46.26964	570.42279	-7.32103	674.16351	-1019.70856	
3507	35.060	-791.49268	-39.39289	-650.96179	781.29138	-34.50868	-644.02045	-708.74323	35.82021	484.56995	708.98083	46.27095	570.42755	-8.26700	674.70789	-1019.15430	
3508	35.070	-791.19891	-39.59102	-650.92432	781.42358	-34.38578	-644.06433	-708.49225	35.70159	484.60382	709.22418	46.20477	570.45825	-8.03951	674.94208	-1019.01367	
3509	35.080	-791.12122	-39.37603	-650.87463	781.53107	-34.27236	-644.10217	-708.20319	35.57677	484.89264	709.40472	46.08987	570.48358	-7.87155	675.15924	-1018.79370	
3510	35.090	-790.86670	-39.42117	-650.80145	781.65887	-34.18395	-644.11243	-708.13397	35.55572	484.61798	709.52295	45.98290	570.55383	-7.58284	675.43024	-1018.44763	
3511	35.100	-790.59937	-39.27762	-650.80475	781.84155	-34.05458	-644.10901	-707.94220	35.41339	484.70526	709.69733	45.95955	570.60510	-7.11581	675.71173	-1018.14215	
3512	35.110	-790.50732	-38.91122	-650.87079	782.04523	-33.86448	-644.04913	-707.70276	35.32519	484.67465	709.98822	45.87712	570.62457	-6.83563	675.92902	-1017.84229	
3513	35.120	-790.26501	-38.76902	-650.89691	782.22327	-33.77896	-643.98285	-707.38055	35.26876	484.78656	710.27191	45.80291	570.69531	-6.77590	676.14618	-1017.56763	
3514	35.130	-790.01312	-38.62354	-650.90295	782.40552	-33.62223	-643.89270	-707.17908	35.12510	484.68933	710.42725	45.72525	570.76251	-6.77213	676.32971	-1017.31750	
3515	35.140	-789.87012	-38.49429	-650.84613	782.62720	-33.43139	-643.75116	-707.03589	34.95714	484.75046	710.51752	45.59294	570.87000	-6.73637	676.44690	-1017.05658	
3516	35.150	-789.85504	-38.23320	-650.85986	782.67804	-33.21513	-643.71338	-706.98627	34.81965	484.67874	710.51984	45.38266	570.91760	-6.78797	676.57111	-1016.74121	
3517	35.160	-789.84790	-38.02179	-650.78632	782.65405	-33.11871	-643.70062	-706.98065	34.71135	484.73462	710.54248	45.28170	570.96991	-6.80687	676.83081	-1016.39252	
3518	35.170	-789.88788	-37.79896	-650.73584	782.54150	-32.90685	-643.84760	-706.96667	34.71672	484.80939	710.66724	45.20176	570.98816	-6.67997	677.24146	-1016.03589	
3519	35.180	-789.72296	-37.79604	-650.71667	782.65283	-32.66759	-643.85077	-706.89447	34.64592	484.82428	710.77112	45.05464	571.00256	-4.19382	676.53302	-1016.87897	
3520	35.190	-789.55396	-37.74992	-650.62463	782.74573	-32.45322	-643.86157	-706.90552	34.55765	485.14713	710.85193	44.88727	571.03912	-6.40716	677.85986	-1015.58136	
3521	35.200	-789.44781	-37.68037	-650.50854	782.79596	-32.37033	-643.85052	-706.71057	34.29850	485.22342	710.89923	44.62440	571.09882	-6.21928	678.18994	-1015.47675	
3522	35.210	-789.42578	-37.42369	-650.45630	782.80176	-32.21017	-643.82690	-706.62451	34.17382	485.27243	711.01947	44.47353	571.09821	-6.08662	678.47217	-1015.39398	
3523	35.220	-789.57837	-37.04530	-650.39740	782.99091	-31.98010	-643.69336	-706.56268	33.93335	485.40063	711.20697	44.42086	571.12500	-6.25164	678.77905	-1015.40442	
3524	35.230	-789.64722	-36.56236	-650.35651	782.95215	-31.57515	-643.55933	-706.57794	33.83604	485.53900	711.55328	44.32246	571.12653	-6.05034	679.27783	-1015.12506	
3525	35.240	-789.50049	-36.29127	-650.32538	783.01093	-31.29485	-643.46881	-706.49652	33.55853	485.71899	710.65375	43.66429	571.46375	-6.02365	679.70074	-1015.04480	
3526	35.250	-789.40887	-36.08616	-650.35071	782.99121	-31.07635	-643.42780	-706.45862	33.28737	485.80612	710.65570	43.37920	571.58008	-4.07462	679.09259	-1015.90863	
3527	35.260	-789.41315	-35.79762	-650.31079	783.09149	-30.82733	-643.30670	-706.44476	33.10448	485.83716	710.63727	43.11884	571.65741	-6.00771	680.56268	-1014.65454	
3528	35.270	-789.33380	-35.61515	-650.33716	783.10260	-30.61748	-643.21478	-706.57617	33.00513	485.69595	710.54541	42.92405	571.74854	-5.71831	680.77448	-1014.48108	
3529	35.280	-789.23584	-35.41296	-650.29736	783.06989	-30.34044	-643.21796	-706.50281	32.83448	485.94623	710.59137	42.77280	571.83173	-6.04848	681.60730	-1013.87738	
3530	35.290	-789.32971	-35.04247	-650.17767	783.00922	-29.99262	-643.19373	-706.59375	32.72701	485.90503	711.32849	42.84841	571.68384	-6.17775	682.09637	-1013.41779	
